<svg width="32" height="37" viewBox="0 0 32 37" fill="none" xmlns="http://www.w3.org/2000/svg">
<path d="M16.0108 18.1581L32 8.78516L31.9463 27.6272L15.957 37.0001L16.0108 18.1581Z" fill="#E8CA88"/>
<path d="M15.9785 26.3873L31.9785 17.0144L31.9678 19.3977L15.9785 28.7706V26.3873Z" fill="#E5E5E5"/>
<path d="M0.0537109 9.37291L16.043 0L31.9999 8.7851L16.0107 18.158L0.0537109 9.37291Z" fill="#F4DFA3"/>
<path d="M6.75293 12.9106L22.6669 3.51636L24.6669 4.63854L8.72067 14.0435L6.75293 12.9106Z" fill="white"/>
<path d="M16.0108 18.1581L15.957 37.0001L0 28.2044L0.0537634 9.37305L16.0108 18.1581Z" fill="#B4A368"/>
<path d="M8.72072 14.0435L8.70997 33.0138L6.69922 31.9023L6.75298 12.9106L8.72072 14.0435Z" fill="#CECECE"/>
<path d="M15.9785 26.3873V28.7706L0.0214844 19.9855L0.0322371 17.5916L15.9785 26.3873Z" fill="#CECECE"/>
</svg>
