<svg width="43" height="42" viewBox="0 0 43 42" fill="none" xmlns="http://www.w3.org/2000/svg">
<path d="M0.733398 17.3301L0.779237 33.7482L14.7599 41.9999L14.714 25.5857L0.733398 17.3301Z" fill="#DCDCDC"/>
<path d="M9.57617 32.5061L9.58763 36.7251L13.1783 38.8443L13.1668 34.6292L9.57617 32.5061Z" fill="#4095E7"/>
<path d="M9.87402 33.1814L9.87784 33.488L11.1881 34.2643L11.1842 33.9577L9.87402 33.1814Z" fill="#0048AC"/>
<path d="M11.5205 34.1091L11.5243 34.4158L12.8345 35.1881L12.8307 34.8815L11.5205 34.1091Z" fill="white"/>
<path d="M9.87402 33.9229L9.87784 34.2295L11.1881 35.0057L11.1842 34.6991L9.87402 33.9229Z" fill="white"/>
<path d="M11.5205 34.8503L11.5243 35.157L12.8345 35.9294L12.8307 35.6227L11.5205 34.8503Z" fill="white"/>
<path d="M9.87402 34.6641L9.87784 34.9707L11.1881 35.7431L11.1842 35.4365L9.87402 34.6641Z" fill="#0048AC"/>
<path d="M11.5205 35.5879L11.5243 35.8945L12.8345 36.6708L12.8307 36.3642L11.5205 35.5879Z" fill="white"/>
<path d="M9.87402 35.4016L9.87784 35.7082L11.1881 36.4845L11.1842 36.1779L9.87402 35.4016Z" fill="white"/>
<path d="M11.5205 36.3291L11.5243 36.6357L12.8345 37.4081L12.8307 37.1015L11.5205 36.3291Z" fill="white"/>
<path d="M9.87402 36.1428L9.87784 36.4495L11.1881 37.2218L11.1842 36.9152L9.87402 36.1428Z" fill="#0048AC"/>
<path d="M11.5205 37.0667L11.5243 37.3733L12.8345 38.1496L12.8307 37.8429L11.5205 37.0667Z" fill="white"/>
<path d="M14.7139 25.5857L14.7597 41.9999L42.2664 25.8651L42.2206 9.45093L14.7139 25.5857Z" fill="#C5C5C5"/>
<path d="M0.733398 17.33L14.714 25.5857L42.2207 9.45093L28.2401 1.19531L0.733398 17.33Z" fill="#DCDCDC"/>
<path d="M0 16.7249L0.00381985 18.2269L14.4925 26.7814L14.4887 25.2793L0 16.7249Z" fill="#0048AC"/>
<path d="M0 16.7247L14.4887 25.2792L42.9962 8.55448L28.5075 0L0 16.7247Z" fill="#0028D7"/>
<path d="M41.2772 8.55075L28.5074 1.01318L1.72266 16.7249L14.4924 24.2663L41.2772 8.55075Z" fill="white"/>
<path d="M22.2281 37.909V22.2439L21.9072 22.4341V38.0914L22.2281 37.909Z" fill="#00208D"/>
<path d="M21.9065 38.0917L21.6162 37.9791L21.662 22.5779L21.9065 22.4343V38.0917Z" fill="#0048AC"/>
<path d="M37.2817 29.0829V13.4255L36.957 13.6118V29.2692L37.2817 29.0829Z" fill="#00208D"/>
<path d="M36.9573 29.2694L36.667 29.153L36.7128 13.7518L36.9573 13.6121V29.2694Z" fill="#0048AC"/>
<path d="M14.4883 25.2791L42.9958 8.55444L42.9996 10.0565L32.22 16.3831V17.8076L26.261 21.3008V19.8763L14.4921 26.7812L14.4883 25.2791Z" fill="#00208D"/>
<path d="M26.2617 21.3009L25.0508 20.5868L26.2617 19.8765V21.3009Z" fill="#0048AC"/>
</svg>
