<svg width="29" height="27" viewBox="0 0 29 27" fill="none" xmlns="http://www.w3.org/2000/svg">
<path d="M15.3586 0.335556C14.8777 -0.111852 14.1258 -0.111852 13.6504 0.335556L0.388168 12.7211C-0.109373 13.1849 -0.131486 13.9651 0.338414 14.4562C0.581657 14.7126 0.913351 14.8381 1.23952 14.8381C1.5491 14.8381 1.85315 14.729 2.09639 14.4998L4.17501 12.5574V25.7724C4.17501 26.4489 4.73337 27 5.41887 27H23.5791C24.2646 27 24.823 26.4489 24.823 25.7724V12.5629L26.9016 14.5053C27.3991 14.9691 28.1897 14.9473 28.6596 14.4562C29.1295 13.9651 29.1129 13.1849 28.6098 12.7211L15.3586 0.335556ZM22.3353 10.3641V24.5502H6.66272V10.3641C6.66272 10.3259 6.65719 10.2877 6.65166 10.2495L14.5018 2.91634L22.3519 10.2495C22.3463 10.2877 22.3353 10.3259 22.3353 10.3641Z" fill="#2E9496"/>
</svg>
