<svg width="13" height="18" viewBox="0 0 13 18" fill="none" xmlns="http://www.w3.org/2000/svg">
<g clip-path="url(#clip0_282_2317)">
<path d="M6.07773 16.9413H2.53128C1.56748 16.9413 0.785469 15.9039 0.785469 14.6339V3.33715C0.785469 2.06331 1.57036 1.02975 2.53128 1.02975H6.13544C6.35186 1.02975 6.525 0.800915 6.525 0.514874C6.525 0.228833 6.35186 0 6.13544 0H2.53128C1.13752 0 0.00634766 1.49886 0.00634766 3.33715V14.6339C0.00634766 16.476 1.1404 17.971 2.53128 17.971H6.07773C6.29415 17.971 6.46729 17.7422 6.46729 17.4561C6.46729 17.1701 6.29126 16.9413 6.07773 16.9413Z" fill="#2E9496"/>
<path d="M12.4955 8.62313L10.0196 5.35082C9.86666 5.14868 9.62138 5.14868 9.46844 5.35082C9.3155 5.55296 9.3155 5.87714 9.46844 6.07927L11.2806 8.47439H3.37687C3.16044 8.47439 2.9873 8.70322 2.9873 8.98926C2.9873 9.27531 3.16044 9.50414 3.37687 9.50414H11.2806L9.46844 11.8993C9.3155 12.1014 9.3155 12.4256 9.46844 12.6277C9.54347 12.7269 9.64447 12.7803 9.74258 12.7803C9.84069 12.7803 9.94169 12.7307 10.0167 12.6277L12.4926 9.3554C12.6484 9.14945 12.6484 8.82145 12.4955 8.62313Z" fill="#2E9496"/>
</g>
<defs>
<clipPath id="clip0_282_2317">
<rect width="13" height="18" fill="white"/>
</clipPath>
</defs>
</svg>
