<svg width="40" height="40" viewBox="0 0 40 40" fill="none" xmlns="http://www.w3.org/2000/svg">
<path d="M32.7223 6.76099L33.517 8.35032L31.3419 9.43832V31.5557C31.3419 32.4925 30.6166 33.2605 29.6966 33.3281L29.5641 33.3334H10.0086C9.07166 33.3334 8.30366 32.6081 8.23611 31.6881L8.23077 31.5557V20.9939L6.85033 21.6837L6.05566 20.0943L8.23077 19.0072V12.0001H10.0086V18.1183L32.7223 6.76099ZM29.5641 10.3272L10.0086 20.105V31.5557H15.3419V22.6668C15.3419 21.7299 16.0672 20.9619 16.9872 20.8934L17.1197 20.889H22.453C23.3899 20.889 24.1579 21.6143 24.2263 22.5343L24.2308 22.6668V31.5557H29.5641V10.3272ZM22.453 22.6668H17.1197V31.5557H22.453V22.6668ZM26.8974 15.5557C27.3881 15.5557 27.7863 15.9539 27.7863 16.4445C27.7863 16.9352 27.3881 17.3334 26.8974 17.3334C26.4068 17.3334 26.0086 16.9352 26.0086 16.4445C26.0086 15.9539 26.4068 15.5557 26.8974 15.5557Z" fill="#797979"/>
</svg>
