<svg width="18" height="19" viewBox="0 0 18 19" fill="none" xmlns="http://www.w3.org/2000/svg">
<path d="M8.96534 18.6191C13.8608 18.6191 17.9301 14.5586 17.9301 9.6543C17.9301 4.75879 13.852 0.689453 8.95654 0.689453C4.05225 0.689453 0.000488281 4.75879 0.000488281 9.6543C0.000488281 14.5586 4.06104 18.6191 8.96534 18.6191ZM8.95654 15.042C8.70164 15.042 8.49954 14.8574 8.49954 14.585V13.917C7.24268 13.7852 6.19678 13.0996 5.92432 12.0098C5.90674 11.9131 5.88037 11.8252 5.88037 11.7197C5.88037 11.3945 6.11768 11.166 6.43408 11.166C6.71533 11.166 6.90869 11.3154 7.01416 11.6406C7.17237 12.2646 7.66455 12.7305 8.49954 12.8535V10.0762L8.43804 10.0586C6.87354 9.6807 6.06494 8.96875 6.06494 7.76465C6.06494 6.48145 7.07569 5.59375 8.49954 5.42676V4.78516C8.49954 4.5127 8.69284 4.32812 8.95654 4.32812C9.21144 4.32812 9.41354 4.52148 9.41354 4.78516V5.42676C10.6176 5.56738 11.5756 6.27051 11.8217 7.29004C11.8481 7.38672 11.8657 7.4834 11.8657 7.58008C11.8657 7.90527 11.6372 8.13379 11.312 8.13379C11.0131 8.13379 10.8286 7.95801 10.7319 7.66797C10.5473 7.03516 10.0815 6.63965 9.41354 6.5166V9.1445L9.52784 9.1621C11.145 9.5488 11.9975 10.2344 11.9975 11.5088C11.9975 12.9414 10.8725 13.7852 9.41354 13.9258V14.585C9.41354 14.8486 9.21144 15.042 8.95654 15.042ZM8.49954 8.90723V6.5166C7.71729 6.65723 7.23389 7.14062 7.23389 7.71191C7.23389 8.25684 7.59424 8.66113 8.42924 8.88965L8.49954 8.90723ZM9.41354 10.2959V12.8535C10.3715 12.7393 10.8286 12.2471 10.8286 11.5791C10.8286 10.9639 10.4858 10.6299 9.50144 10.3311L9.41354 10.2959Z" fill="#2E9496"/>
</svg>
