<svg width="24" height="28" viewBox="0 0 24 28" fill="none" xmlns="http://www.w3.org/2000/svg">
<path d="M7.64644 27.4474C8.2952 27.4474 8.96613 27.4364 9.6537 27.4197C11.1508 27.392 12.8143 27.392 14.3115 27.4197C17.8713 27.4863 20.9432 27.5472 22.6788 25.8505C23.5327 25.0132 23.9652 23.8321 23.9652 22.3461C23.9652 17.0452 18.5921 12.7312 11.9826 12.7312C5.37303 12.7312 0 17.0452 0 22.3461C0 23.8321 0.432492 25.0132 1.28641 25.8505C2.68373 27.2201 4.95161 27.4474 7.64644 27.4474ZM11.977 15.2264C17.2059 15.2264 21.4644 18.4203 21.4644 22.3461C21.4644 23.5383 21.0596 23.9375 20.9266 24.0706C19.9396 25.0354 17.2281 24.9855 14.3558 24.93C12.8254 24.9023 11.1287 24.9023 9.59827 24.93C6.726 24.9855 4.01452 25.0409 3.02753 24.0706C2.89445 23.9375 2.48967 23.5438 2.48967 22.3517C2.49521 18.4203 6.74816 15.2264 11.977 15.2264Z" fill="#797979"/>
<path d="M11.9768 12.3929C15.1763 12.3929 17.6548 8.78316 17.6548 5.67801C17.6548 2.55067 15.1097 0 11.9768 0C8.84394 0 6.29883 2.54512 6.29883 5.67801C6.30437 8.78316 8.78295 12.3929 11.9768 12.3929ZM11.9768 2.49522C13.729 2.49522 15.1596 3.92026 15.1596 5.67801C15.1596 7.51892 13.6181 9.8977 11.9768 9.8977C10.3355 9.8977 8.79405 7.51892 8.79405 5.67801C8.79959 3.92026 10.2246 2.49522 11.9768 2.49522Z" fill="#797979"/>
</svg>
