<svg width="19" height="19" viewBox="0 0 19 19" fill="none" xmlns="http://www.w3.org/2000/svg">
<mask id="mask0_282_2542" style="mask-type:luminance" maskUnits="userSpaceOnUse" x="0" y="0" width="19" height="19">
<path fill-rule="evenodd" clip-rule="evenodd" d="M4.31934 0.0093689C3.89561 0.0244312 3.3495 0.0575809 3.10128 0.107679C2.72239 0.184195 2.36457 0.300203 2.067 0.451866C1.71738 0.630043 1.40404 0.857374 1.13347 1.12752C0.862286 1.39818 0.634044 1.71182 0.455152 2.06196C0.303912 2.35793 0.187968 2.71357 0.111128 3.09032C0.0600211 3.34104 0.0262206 3.89122 0.0108981 4.31768C0.00468457 4.49198 0.00149646 4.71756 0.00149646 4.82159L0 14.1769C0 14.2806 0.00315558 14.5062 0.00933661 14.6807C0.0243988 15.1044 0.0575486 15.6505 0.10768 15.8987C0.184162 16.2776 0.300203 16.6354 0.451833 16.933C0.630042 17.2826 0.857342 17.5959 1.12749 17.8665C1.39815 18.1377 1.71182 18.3659 2.06193 18.5448C2.35793 18.6961 2.71357 18.812 3.09029 18.8889C3.34101 18.94 3.89122 18.9738 4.31768 18.9891C4.49192 18.9953 4.71753 18.9985 4.82156 18.9985L14.1769 19C14.2806 19 14.5062 18.9969 14.6806 18.9907C15.1044 18.9756 15.6505 18.9425 15.8987 18.8923C16.2776 18.8158 16.6354 18.6998 16.933 18.5482C17.2826 18.37 17.5959 18.1426 17.8665 17.8725C18.1376 17.6018 18.3659 17.2882 18.5448 16.9381C18.696 16.6421 18.812 16.2865 18.8888 15.9097C18.94 15.659 18.9737 15.1087 18.9891 14.6823C18.9953 14.508 18.9985 14.2825 18.9985 14.1784L19 4.82309C19 4.71945 18.9968 4.4938 18.9906 4.31934C18.9755 3.89564 18.9424 3.34953 18.8923 3.10132C18.8158 2.72242 18.6998 2.3646 18.5481 2.06703C18.37 1.71738 18.1426 1.40407 17.8725 1.13347C17.6018 0.862352 17.2881 0.634077 16.938 0.455185C16.642 0.303944 16.2864 0.187969 15.9097 0.111162C15.659 0.0600548 15.1087 0.0262527 14.6823 0.0109634C14.508 0.00468445 14.2824 0.00152969 14.1784 0.00152969L4.82306 3.24249e-05C4.71941 3.24249e-05 4.49377 0.00315475 4.31934 0.0093689Z" fill="white"/>
</mask>
<g mask="url(#mask0_282_2542)">
<path d="M4.31934 0.0093689C3.89561 0.0244312 3.3495 0.0575809 3.10128 0.107679C2.72239 0.184195 2.36457 0.300203 2.067 0.451866C1.71738 0.630043 1.40404 0.857374 1.13347 1.12752C0.862286 1.39818 0.634044 1.71182 0.455152 2.06196C0.303912 2.35793 0.187968 2.71357 0.111128 3.09032C0.0600211 3.34104 0.0262206 3.89122 0.0108981 4.31768C0.00468457 4.49198 0.00149646 4.71756 0.00149646 4.82159L0 14.1769C0 14.2806 0.00315558 14.5062 0.00933661 14.6807C0.0243988 15.1044 0.0575486 15.6505 0.10768 15.8987C0.184162 16.2776 0.300203 16.6354 0.451833 16.933C0.630042 17.2826 0.857342 17.5959 1.12749 17.8665C1.39815 18.1377 1.71182 18.3659 2.06193 18.5448C2.35793 18.6961 2.71357 18.812 3.09029 18.8889C3.34101 18.94 3.89122 18.9738 4.31768 18.9891C4.49192 18.9953 4.71753 18.9985 4.82156 18.9985L14.1769 19C14.2806 19 14.5062 18.9969 14.6806 18.9907C15.1044 18.9756 15.6505 18.9425 15.8987 18.8923C16.2776 18.8158 16.6354 18.6998 16.933 18.5482C17.2826 18.37 17.5959 18.1426 17.8665 17.8725C18.1376 17.6018 18.3659 17.2882 18.5448 16.9381C18.696 16.6421 18.812 16.2865 18.8888 15.9097C18.94 15.659 18.9737 15.1087 18.9891 14.6823C18.9953 14.508 18.9985 14.2825 18.9985 14.1784L19 4.82309C19 4.71945 18.9968 4.4938 18.9906 4.31934C18.9755 3.89564 18.9424 3.34953 18.8923 3.10132C18.8158 2.72242 18.6998 2.3646 18.5481 2.06703C18.37 1.71738 18.1426 1.40407 17.8725 1.13347C17.6018 0.862352 17.2881 0.634077 16.938 0.455185C16.642 0.303944 16.2864 0.187969 15.9097 0.111162C15.659 0.0600548 15.1087 0.0262527 14.6823 0.0109634C14.508 0.00468445 14.2824 0.00152969 14.1784 0.00152969L4.82306 3.24249e-05C4.71941 3.24249e-05 4.49377 0.00315475 4.31934 0.0093689Z" fill="url(#paint0_linear_282_2542)"/>
<path fill-rule="evenodd" clip-rule="evenodd" d="M12.7933 10.7505C12.6241 10.6659 11.7921 10.2566 11.6369 10.2001C11.4818 10.1437 11.369 10.1154 11.2562 10.2848C11.1434 10.4542 10.8191 10.8352 10.7203 10.9481C10.6216 11.061 10.5229 11.0752 10.3537 10.9905C10.1845 10.9058 9.63921 10.7271 8.99284 10.1508C8.48977 9.70223 8.15013 9.14818 8.0514 8.97882C7.9527 8.80946 8.04089 8.71792 8.12564 8.63356C8.20173 8.55779 8.29484 8.436 8.37945 8.3372C8.46407 8.2384 8.49227 8.16784 8.54868 8.05495C8.60509 7.94203 8.57689 7.84324 8.53456 7.75855C8.49227 7.67387 8.15384 6.84119 8.01282 6.50247C7.87547 6.1726 7.73594 6.21723 7.63207 6.21206C7.53346 6.20715 7.42055 6.20611 7.30772 6.20611C7.1949 6.20611 7.01159 6.24846 6.85644 6.41779C6.70133 6.58715 6.26417 6.99647 6.26417 7.82912C6.26417 8.6618 6.87056 9.46624 6.95518 9.57916C7.03979 9.69208 8.14848 11.4008 9.84605 12.1336C10.2498 12.3079 10.565 12.412 10.8108 12.49C11.2162 12.6187 11.5851 12.6006 11.8767 12.557C12.2018 12.5084 12.8779 12.1477 13.0189 11.7526C13.1599 11.3574 13.1599 11.0187 13.1176 10.9481C13.0753 10.8776 12.9625 10.8352 12.7933 10.7505ZM9.70559 14.9651H9.70331C8.6932 14.9647 7.70248 14.6935 6.83821 14.1808L6.63264 14.0588L4.50211 14.6175L5.07079 12.5409L4.93692 12.328C4.37344 11.432 4.07584 10.3964 4.07627 9.33314C4.0775 6.23039 6.60278 3.70609 9.70784 3.70609C11.2114 3.70667 12.6248 4.2928 13.6876 5.35646C14.7504 6.42015 15.3354 7.83404 15.3348 9.33769C15.3335 12.4407 12.8083 14.9651 9.70559 14.9651ZM14.4965 4.54825C13.2178 3.26849 11.5173 2.56336 9.70553 2.56265C5.97251 2.56265 2.93427 5.59971 2.93278 9.33276C2.93229 10.5261 3.24414 11.6909 3.8368 12.7176L2.87598 16.2261L6.46631 15.2846C7.45553 15.824 8.56929 16.1082 9.70283 16.1087H9.70559H9.70562C13.4383 16.1087 16.4768 13.0712 16.4783 9.33816C16.479 7.52907 15.7752 5.82799 14.4965 4.54825Z" fill="white"/>
</g>
<defs>
<linearGradient id="paint0_linear_282_2542" x1="-2.03848e-05" y1="19" x2="-2.03848e-05" y2="1.05946e-05" gradientUnits="userSpaceOnUse">
<stop stop-color="#25CF43"/>
<stop offset="1" stop-color="#61FD7D"/>
</linearGradient>
</defs>
</svg>
